PathFileType	4	(X/Y/Z)	 s06c0101.trc
DataRate	CameraRate	NumFrames	NumMarkers	Units	OrigDataRate	OrigDataStartFrame	OrigNumFrames
200	200	4	49	mm	200	1	2000
Frame#	Time	racr			lacr			c7			jug			rlel			rdr			llel			ldr			s2			lic			ric			lasi			rasi			rpsi			lpsi			rgt			lgt			rth1			rth2			rth3			rth4			rlfc			rmfc			rsh1			rsh2			rsh3			rsh4			rlmal			rmmal			rcal			rtoe			rmt5			lth1			lth2			lth4			lth3			llfc			lmfc			llmal			lcal			lmt5			lsh1			lsh2			lsh3			lsh4			ltoe			SBIKE			LBIKE			RBIKE			
		X1	Y1	Z1	X2	Y2	Z2	X3	Y3	Z3	X4	Y4	Z4	X5	Y5	Z5	X6	Y6	Z6	X7	Y7	Z7	X8	Y8	Z8	X9	Y9	Z9	X10	Y10	Z10	X11	Y11	Z11	X12	Y12	Z12	X13	Y13	Z13	X14	Y14	Z14	X15	Y15	Z15	X16	Y16	Z16	X17	Y17	Z17	X18	Y18	Z18	X19	Y19	Z19	X20	Y20	Z20	X21	Y21	Z21	X22	Y22	Z22	X23	Y23	Z23	X24	Y24	Z24	X25	Y25	Z25	X26	Y26	Z26	X27	Y27	Z27	X28	Y28	Z28	X29	Y29	Z29	X30	Y30	Z30	X31	Y31	Z31	X32	Y32	Z32	X33	Y33	Z33	X34	Y34	Z34	X35	Y35	Z35	X36	Y36	Z36	X37	Y37	Z37	X38	Y38	Z38	X39	Y39	Z39	X40	Y40	Z40	X41	Y41	Z41	X42	Y42	Z42	X43	Y43	Z43	X44	Y44	Z44	X45	Y45	Z45	X46	Y46	Z46	X47	Y47	Z47	X48	Y48	Z48	X49	Y49	Z49	
1	0.0050	461.316933	1337.338400	-56.331362	485.427485	1349.368799	-376.415475	460.696973	1420.165318	-216.039084	482.318315	1262.051739	-215.021098	537.625448	1097.227183	22.227758	716.626547	923.528579	-44.622358	538.496910	1094.330830	-457.047404	716.485763	926.427851	-394.237120	-34.734667	1132.486044	-213.064213	149.462476	1099.709844	-382.786302	121.284633	1102.049233	-44.831974	157.233764	1035.009041	-352.455215	145.836653	1055.730276	-69.403454	3.443333	1172.152055	-185.583462	1.097068	1165.380815	-249.191273	80.410180	1050.199086	-13.383823	106.061285	1027.799338	-415.009071	181.512802	988.085041	-4.481769	271.407691	974.154325	-6.315447	338.822579	920.113992	-6.269761	283.089095	1004.716846	-26.470758	413.146345	841.378853	-27.800274	419.802815	817.514974	-138.525891	378.111564	722.680788	-6.445418	372.941895	637.861465	-28.539620	328.007338	563.703695	-36.352475	396.513069	635.763534	-60.855277	297.981991	487.206521	-44.972536	333.418108	493.555505	-136.973912	232.545135	479.419582	-95.747478	486.701772	373.392858	-105.307088	391.396049	384.437473	-32.163740	154.383084	917.435951	-425.076606	225.469676	866.959314	-419.135735	252.994522	889.436731	-406.077272	261.813241	785.681219	-414.012537	290.662173	678.353149	-388.276310	291.838836	658.545184	-272.117399	49.221346	398.088108	-386.267954	-17.505494	425.315140	-340.478427	91.181442	257.188376	-403.099984	225.863506	596.359766	-412.437510	188.362260	519.435183	-395.958415	116.996557	468.131587	-400.591293	209.114125	506.031951	-365.628853	153.731082	201.827225	-341.089651	-160.146125	859.747881	-217.236278	-48.582191	84.110228	-419.510741	-49.698918	79.520535	-22.113829	
2	0.0100	461.348294	1337.336830	-56.334257	485.429630	1349.365498	-376.435654	460.681498	1420.163745	-216.030554	482.288764	1262.081909	-215.020191	537.628357	1097.236028	22.213909	716.640817	923.524365	-44.622187	538.481908	1094.333461	-457.076066	716.465822	926.425516	-394.275643	-34.748158	1132.508461	-213.074774	149.460489	1099.702848	-382.820509	121.311392	1102.018627	-44.859243	157.227475	1035.016568	-352.511869	145.831287	1055.678843	-69.423534	3.447843	1172.142916	-185.608980	1.103689	1165.380963	-249.210641	80.422666	1050.218923	-13.399090	106.062150	1027.779427	-415.026579	181.533946	988.104129	-4.501516	271.430807	974.208650	-6.316723	338.850061	920.161578	-6.267354	283.101247	1004.733080	-26.476150	413.157148	841.413451	-27.795981	419.800953	817.547431	-138.535570	378.130516	722.663863	-6.463515	372.947208	637.871506	-28.519516	328.021601	563.730322	-36.355595	396.530496	635.764492	-60.870069	297.860840	487.187988	-45.048236	333.425996	493.541554	-136.994556	232.561378	479.438055	-95.726874	486.691162	373.391584	-105.331291	391.407030	384.453465	-32.184125	154.371031	917.436320	-425.087992	225.046806	868.023897	-419.414782	252.844131	889.772132	-406.091685	261.796239	785.697130	-414.036338	290.642603	678.368437	-388.286855	291.869658	658.585306	-272.155444	49.232102	398.088149	-386.271464	-17.485117	425.295740	-340.489135	91.183633	257.185835	-403.092882	225.866321	596.354531	-412.460140	188.368682	519.438602	-395.994943	116.983405	468.149418	-400.610522	209.107780	506.024536	-365.646212	153.741793	201.831359	-341.075293	-159.704434	859.599158	-216.600419	-48.562647	84.131158	-419.503241	-49.674992	79.498257	-22.129346	
3	0.0150	461.354777	1337.345887	-56.336758	485.432377	1349.381629	-376.468021	460.670089	1420.184533	-216.052006	482.309068	1262.110360	-215.051841	537.623471	1097.245166	22.217209	716.624624	923.533872	-44.624861	538.470118	1094.330172	-457.108130	716.456051	926.424975	-394.282702	-34.737194	1132.506135	-213.072036	149.477251	1099.689630	-382.842473	121.323708	1102.032322	-44.875636	157.248687	1034.992154	-352.524148	145.842106	1055.694723	-69.445541	3.442651	1172.158689	-185.603605	1.113275	1165.383648	-249.233048	80.435813	1050.228308	-13.414698	106.052437	1027.779422	-415.036262	181.546091	988.142258	-4.496014	271.438414	974.217805	-6.333087	338.845365	920.177276	-6.264225	283.122985	1004.755147	-26.496696	413.171328	841.417390	-27.806078	419.803310	817.540117	-138.537528	378.166489	722.677052	-6.467026	372.962319	637.879914	-28.538795	328.041789	563.744183	-36.353622	396.536535	635.769277	-60.863924	297.876484	487.206998	-45.045178	333.427459	493.549663	-136.980370	232.569670	479.451773	-95.728167	486.696916	373.393429	-105.304566	391.402503	384.451196	-32.176133	154.371920	917.453463	-425.109815	225.446025	866.978160	-419.192365	252.997510	889.455423	-406.120514	261.790295	785.725116	-414.076674	290.644636	678.377386	-388.331408	291.888398	658.591514	-272.172256	49.240705	398.080156	-386.275328	-17.468694	425.292313	-340.477778	91.188055	257.192686	-403.104821	225.861368	596.349022	-412.472724	188.360657	519.439472	-396.008908	117.001558	468.139089	-400.615804	209.116178	506.027000	-365.645905	153.729329	201.824456	-341.100911	-160.583448	860.016040	-215.317610	-48.561627	84.136087	-419.510611	-49.679827	79.496370	-22.131262	
4	0.0200	461.364483	1337.353623	-56.360619	485.266139	1349.357875	-376.986338	460.665392	1420.193496	-216.059696	482.331346	1262.125859	-215.059249	537.642685	1097.255577	22.213883	716.640535	923.535899	-44.618669	538.526271	1094.367585	-457.250055	716.230684	926.768632	-395.356450	-34.893978	1132.929240	-213.021645	149.497129	1099.678074	-382.847274	121.354322	1102.026833	-44.898059	157.257579	1034.952808	-352.517356	145.875149	1055.695629	-69.477598	2.979537	1171.854160	-185.455316	-0.355171	1166.585856	-248.843148	80.458862	1050.249827	-13.416473	105.988265	1027.713640	-414.852016	181.566233	988.159860	-4.510868	271.458855	974.237094	-6.338047	338.720055	920.101286	-6.151420	283.022973	1004.681245	-26.813378	413.848532	841.261604	-27.508119	419.684654	817.149841	-137.917366	378.199302	722.684779	-6.473703	373.129318	637.703349	-28.299862	328.376369	563.583674	-36.263910	396.533556	635.558440	-60.867363	298.024602	487.194601	-44.956664	333.540059	493.436109	-137.018452	232.582700	479.454288	-95.723575	486.704917	373.392149	-105.321602	391.640569	384.311954	-32.259883	154.359601	917.478484	-425.142214	225.318146	867.301961	-419.197397	252.804212	889.724336	-406.015962	261.750763	785.634045	-414.097492	290.647097	678.366385	-388.337221	291.877463	658.580323	-272.188667	49.248086	398.072841	-386.273267	-17.466287	425.294103	-340.476310	90.943420	256.897911	-402.684699	225.868226	596.343372	-412.486578	188.256668	519.481516	-396.449609	117.334112	467.558861	-400.820850	209.017389	505.709123	-365.310397	153.745613	201.821107	-341.086933	-159.862041	859.621366	-216.719428	-48.568342	84.132391	-419.521271	-49.678798	79.491654	-22.132465	
